<svg width="28" height="28" viewBox="0 0 28 28" fill="none" xmlns="http://www.w3.org/2000/svg">
<path d="M14 0.206787C6.38179 0.206787 0.206894 6.38168 0.206894 13.9999C0.206894 21.6181 6.38179 27.793 14 27.793C21.6182 27.793 27.7931 21.6181 27.7931 13.9999C27.7931 6.38168 21.6182 0.206787 14 0.206787ZM21.1724 15.1033H15.1034V21.1723C15.1034 21.465 14.9872 21.7456 14.7803 21.9526C14.5733 22.1595 14.2927 22.2758 14 22.2758C13.7073 22.2758 13.4267 22.1595 13.2197 21.9526C13.0128 21.7456 12.8965 21.465 12.8965 21.1723V15.1033H6.82758C6.53493 15.1033 6.25426 14.9871 6.04733 14.7801C5.84039 14.5732 5.72414 14.2925 5.72414 13.9999C5.72414 13.7072 5.84039 13.4266 6.04733 13.2196C6.25426 13.0127 6.53493 12.8964 6.82758 12.8964H12.8965V6.82748C12.8965 6.53482 13.0128 6.25416 13.2197 6.04722C13.4267 5.84028 13.7073 5.72403 14 5.72403C14.2927 5.72403 14.5733 5.84028 14.7803 6.04722C14.9872 6.25416 15.1034 6.53482 15.1034 6.82748V12.8964H21.1724C21.4651 12.8964 21.7457 13.0127 21.9527 13.2196C22.1596 13.4266 22.2759 13.7072 22.2759 13.9999C22.2759 14.2925 22.1596 14.5732 21.9527 14.7801C21.7457 14.9871 21.4651 15.1033 21.1724 15.1033Z" fill="#399E9B"/>
</svg>
